<svg id="Layer_1" data-name="Layer 1" xmlns="http://www.w3.org/2000/svg" xmlns:xlink="http://www.w3.org/1999/xlink" viewBox="0 0 512 512"><defs><linearGradient id="linear-gradient" x1="256" x2="256" y2="512" gradientUnits="userSpaceOnUse"><stop offset="0" stop-color="#e9ebf5"/><stop offset="0.76" stop-color="#b0c7e1"/><stop offset="1" stop-color="#7697c6"/></linearGradient><linearGradient id="linear-gradient-2" x1="256" y1="374.65" x2="256" y2="137.35" gradientUnits="userSpaceOnUse"><stop offset="0" stop-color="#000013"/><stop offset="1" stop-color="#005c92"/></linearGradient></defs><title>next</title><path d="M256,512c141,0,256-115,256-256S397,0,256,0,0,115,0,256,115,512,256,512Z" fill-rule="evenodd" fill="url(#linear-gradient)"/><path d="M296.25,146.64l70.08,71c28.53,28.89,29.75,46.45.88,75.69l-71.4,72.28c-18.5,18.74-34.31,6.08-34.31-16.11V319.66H120.42a19.11,19.11,0,0,1-18.94-19.17v-89a19.11,19.11,0,0,1,18.94-19.17H261.5V159.66C261.5,134.38,281.17,131.39,296.25,146.64Z" fill="#fff" fill-rule="evenodd"/><path d="M307.35,146.64l70.08,71c28.54,28.89,29.75,46.45.88,75.69l-71.39,72.28c-18.5,18.74-34.32,6.08-34.32-16.11V319.66H131.53a19.11,19.11,0,0,1-18.94-19.17v-89a19.11,19.11,0,0,1,18.94-19.17H272.6V159.66C272.6,134.38,292.28,131.39,307.35,146.64Z" fill-rule="evenodd" fill="url(#linear-gradient-2)"/></svg>