<svg id="Layer_1" data-name="Layer 1" xmlns="http://www.w3.org/2000/svg" xmlns:xlink="http://www.w3.org/1999/xlink" viewBox="0 0 512 512"><defs><linearGradient id="linear-gradient" x1="256" x2="256" y2="512" gradientUnits="userSpaceOnUse"><stop offset="0" stop-color="#e9ebf5"/><stop offset="0.76" stop-color="#b0c7e1"/><stop offset="1" stop-color="#7697c6"/></linearGradient><linearGradient id="linear-gradient-2" x1="256" y1="433.43" x2="256" y2="78.58" gradientUnits="userSpaceOnUse"><stop offset="0" stop-color="#000013"/><stop offset="1" stop-color="#005c92"/></linearGradient></defs><title>refresh</title><path d="M256,512c141,0,256-115,256-256S397,0,256,0,0,115,0,256,115,512,256,512Z" fill-rule="evenodd" fill="url(#linear-gradient)"/><path d="M344.61,321.84,276.87,260c-11.06-10.05-20.17-15.27-20.17,3.9v30c-28.92,10.52-117.19,8.84-137.6-23.61-3.36-5.36-5.36-12.89-9.1-13.61-2.9-.56-8.46,3.3-6.15,13.64,8.58,38.23,43.8,120.18,152.85,120.64v24.53c-.36,26.87,9.37,18.84,23,6.44l63.47-57.7c19.73-17.95,21.32-24.24,1.43-42.38ZM256.7,423.5v2.58c0-.82,0-1.68,0-2.58ZM143.09,190.16c-19.89-18.15-18.3-24.43,1.43-42.38L208,90.08c13.64-12.39,23.36-20.42,23,6.44v24.53c109.05.47,144.27,82.41,152.84,120.65,2.32,10.33-3.25,14.18-6.14,13.63-3.74-.71-5.74-8.25-9.1-13.6C348.18,209.28,259.91,207.6,231,218.12v30c0,19.17-9.11,14-20.16,3.9Z" fill="#fff"/><path d="M356.76,321.84,289,260c-11.06-10.05-20.17-15.27-20.17,3.9v30c-28.92,10.52-117.19,8.84-137.6-23.61-3.36-5.36-5.36-12.89-9.1-13.61-2.9-.56-8.46,3.3-6.14,13.64,8.57,38.23,43.79,120.18,152.84,120.64v24.53c-.36,26.87,9.37,18.84,23,6.44l63.47-57.7c19.74-17.95,21.32-24.24,1.43-42.38ZM268.85,423.5v2.58c0-.82,0-1.68,0-2.58ZM155.24,190.16c-19.89-18.15-18.3-24.43,1.44-42.38l63.47-57.7c13.64-12.39,23.36-20.42,23,6.44v24.53C352.2,121.53,387.42,203.46,396,241.7c2.32,10.33-3.26,14.18-6.16,13.63-3.73-.71-5.73-8.25-9.09-13.6-20.41-32.46-108.68-34.13-137.6-23.61v30c0,19.17-9.11,14-20.16,3.9Z" fill="url(#linear-gradient-2)"/></svg>